G04 #@! TF.FileFunction,Soldermask,Top*
%FSLAX46Y46*%
G04 Gerber Fmt 4.6, Leading zero omitted, Abs format (unit mm)*
G04 Created by KiCad (PCBNEW 4.0.0-stable) date 2016 May 25, Wednesday 08:29:24*
%MOMM*%
G01*
G04 APERTURE LIST*
%ADD10C,0.100000*%
%ADD11R,2.200860X1.997660*%
%ADD12R,1.197560X1.697940*%
%ADD13R,1.697940X1.197560*%
%ADD14C,2.279600*%
G04 APERTURE END LIST*
D10*
D11*
X133350000Y-113814860D03*
X133350000Y-110975140D03*
X135890000Y-113814860D03*
X135890000Y-110975140D03*
X138430000Y-113814860D03*
X138430000Y-110975140D03*
X140970000Y-113814860D03*
X140970000Y-110975140D03*
X140970000Y-97005140D03*
X140970000Y-99844860D03*
X138430000Y-97005140D03*
X138430000Y-99844860D03*
X135890000Y-97005140D03*
X135890000Y-99844860D03*
X133350000Y-97005140D03*
X133350000Y-99844860D03*
X143510000Y-113814860D03*
X143510000Y-110975140D03*
X146050000Y-113814860D03*
X146050000Y-110975140D03*
X148590000Y-113814860D03*
X148590000Y-110975140D03*
X151130000Y-113814860D03*
X151130000Y-110975140D03*
X151130000Y-97005140D03*
X151130000Y-99844860D03*
X148590000Y-97005140D03*
X148590000Y-99844860D03*
X146050000Y-97005140D03*
X146050000Y-99844860D03*
X143510000Y-97005140D03*
X143510000Y-99844860D03*
D12*
X135890000Y-106997500D03*
X137160000Y-106997500D03*
X138430000Y-106997500D03*
X139700000Y-106997500D03*
X140970000Y-106997500D03*
X140970000Y-103822500D03*
X139700000Y-103822500D03*
X138430000Y-103822500D03*
X137160000Y-103822500D03*
X135890000Y-103822500D03*
X143510000Y-106997500D03*
X144780000Y-106997500D03*
X146050000Y-106997500D03*
X147320000Y-106997500D03*
X148590000Y-106997500D03*
X148590000Y-103822500D03*
X147320000Y-103822500D03*
X146050000Y-103822500D03*
X144780000Y-103822500D03*
X143510000Y-103822500D03*
D13*
X160337500Y-106680000D03*
X160337500Y-107950000D03*
X160337500Y-109220000D03*
X160337500Y-110490000D03*
X160337500Y-111760000D03*
X163512500Y-111760000D03*
X163512500Y-110490000D03*
X163512500Y-109220000D03*
X163512500Y-107950000D03*
X163512500Y-106680000D03*
X160337500Y-99060000D03*
X160337500Y-100330000D03*
X160337500Y-101600000D03*
X160337500Y-102870000D03*
X160337500Y-104140000D03*
X163512500Y-104140000D03*
X163512500Y-102870000D03*
X163512500Y-101600000D03*
X163512500Y-100330000D03*
X163512500Y-99060000D03*
D14*
X133350000Y-93980000D03*
X135890000Y-93980000D03*
X138430000Y-93980000D03*
X140970000Y-93980000D03*
X143510000Y-93980000D03*
X146050000Y-93980000D03*
X148590000Y-93980000D03*
X151130000Y-93980000D03*
X153670000Y-93980000D03*
X156210000Y-93980000D03*
X158750000Y-93980000D03*
X161290000Y-93980000D03*
X163830000Y-93980000D03*
X163830000Y-116840000D03*
X161290000Y-116840000D03*
X158750000Y-116840000D03*
X156210000Y-116840000D03*
X153670000Y-116840000D03*
X151130000Y-116840000D03*
X148590000Y-116840000D03*
X146050000Y-116840000D03*
X143510000Y-116840000D03*
X140970000Y-116840000D03*
X138430000Y-116840000D03*
X135890000Y-116840000D03*
X133350000Y-116840000D03*
M02*
