G04 #@! TF.FileFunction,Legend,Top*
%FSLAX46Y46*%
G04 Gerber Fmt 4.6, Leading zero omitted, Abs format (unit mm)*
G04 Created by KiCad (PCBNEW 4.0.0-stable) date 2016 May 25, Wednesday 08:29:24*
%MOMM*%
G01*
G04 APERTURE LIST*
%ADD10C,0.100000*%
%ADD11C,0.190500*%
%ADD12C,0.222250*%
%ADD13C,0.300000*%
%ADD14C,0.150000*%
%ADD15C,0.203200*%
G04 APERTURE END LIST*
D10*
D11*
X133114143Y-108330999D02*
X133077857Y-108403571D01*
X133077857Y-108548714D01*
X133114143Y-108621285D01*
X133186714Y-108693856D01*
X133259286Y-108730142D01*
X133404429Y-108730142D01*
X133477000Y-108693856D01*
X133549571Y-108621285D01*
X133585857Y-108548714D01*
X133585857Y-108403571D01*
X133549571Y-108330999D01*
X132823857Y-108476142D02*
X132860143Y-108657571D01*
X132969000Y-108838999D01*
X133150429Y-108947856D01*
X133331857Y-108984142D01*
X133513286Y-108947856D01*
X133694714Y-108838999D01*
X133803571Y-108657571D01*
X133839857Y-108476142D01*
X133803571Y-108294714D01*
X133694714Y-108113285D01*
X133513286Y-108004428D01*
X133331857Y-107968142D01*
X133150429Y-108004428D01*
X132969000Y-108113285D01*
X132860143Y-108294714D01*
X132823857Y-108476142D01*
X133186714Y-107060999D02*
X133948714Y-107060999D01*
X133585857Y-106698142D02*
X133658429Y-106661857D01*
X133694714Y-106589285D01*
X133585857Y-107060999D02*
X133658429Y-107024714D01*
X133694714Y-106952142D01*
X133694714Y-106806999D01*
X133658429Y-106734428D01*
X133585857Y-106698142D01*
X133186714Y-106698142D01*
X132932714Y-106371571D02*
X132932714Y-105936142D01*
X133694714Y-106153856D02*
X132932714Y-106153856D01*
X133694714Y-105682142D02*
X132932714Y-105682142D01*
X133694714Y-105355571D02*
X133295571Y-105355571D01*
X133223000Y-105391857D01*
X133186714Y-105464428D01*
X133186714Y-105573285D01*
X133223000Y-105645857D01*
X133259286Y-105682142D01*
X133005286Y-104448428D02*
X132969000Y-104412142D01*
X132932714Y-104339571D01*
X132932714Y-104158142D01*
X132969000Y-104085571D01*
X133005286Y-104049285D01*
X133077857Y-104013000D01*
X133150429Y-104013000D01*
X133259286Y-104049285D01*
X133694714Y-104484714D01*
X133694714Y-104013000D01*
X132932714Y-103541286D02*
X132932714Y-103468714D01*
X132969000Y-103396143D01*
X133005286Y-103359857D01*
X133077857Y-103323571D01*
X133223000Y-103287286D01*
X133404429Y-103287286D01*
X133549571Y-103323571D01*
X133622143Y-103359857D01*
X133658429Y-103396143D01*
X133694714Y-103468714D01*
X133694714Y-103541286D01*
X133658429Y-103613857D01*
X133622143Y-103650143D01*
X133549571Y-103686428D01*
X133404429Y-103722714D01*
X133223000Y-103722714D01*
X133077857Y-103686428D01*
X133005286Y-103650143D01*
X132969000Y-103613857D01*
X132932714Y-103541286D01*
X133694714Y-102561572D02*
X133694714Y-102997000D01*
X133694714Y-102779286D02*
X132932714Y-102779286D01*
X133041571Y-102851857D01*
X133114143Y-102924429D01*
X133150429Y-102997000D01*
X132932714Y-101908429D02*
X132932714Y-102053572D01*
X132969000Y-102126143D01*
X133005286Y-102162429D01*
X133114143Y-102235000D01*
X133259286Y-102271286D01*
X133549571Y-102271286D01*
X133622143Y-102235000D01*
X133658429Y-102198715D01*
X133694714Y-102126143D01*
X133694714Y-101981000D01*
X133658429Y-101908429D01*
X133622143Y-101872143D01*
X133549571Y-101835858D01*
X133368143Y-101835858D01*
X133295571Y-101872143D01*
X133259286Y-101908429D01*
X133223000Y-101981000D01*
X133223000Y-102126143D01*
X133259286Y-102198715D01*
X133295571Y-102235000D01*
X133368143Y-102271286D01*
D12*
X153776892Y-109854999D02*
X153776892Y-110278332D01*
X152887892Y-110278332D01*
X153776892Y-109558665D02*
X153184225Y-109558665D01*
X152887892Y-109558665D02*
X152930225Y-109600999D01*
X152972558Y-109558665D01*
X152930225Y-109516332D01*
X152887892Y-109558665D01*
X152972558Y-109558665D01*
X153184225Y-108754332D02*
X153903892Y-108754332D01*
X153988558Y-108796666D01*
X154030892Y-108838999D01*
X154073225Y-108923666D01*
X154073225Y-109050666D01*
X154030892Y-109135332D01*
X153734558Y-108754332D02*
X153776892Y-108838999D01*
X153776892Y-109008332D01*
X153734558Y-109092999D01*
X153692225Y-109135332D01*
X153607558Y-109177666D01*
X153353558Y-109177666D01*
X153268892Y-109135332D01*
X153226558Y-109092999D01*
X153184225Y-109008332D01*
X153184225Y-108838999D01*
X153226558Y-108754332D01*
X153776892Y-108330999D02*
X152887892Y-108330999D01*
X153776892Y-107949999D02*
X153311225Y-107949999D01*
X153226558Y-107992333D01*
X153184225Y-108076999D01*
X153184225Y-108203999D01*
X153226558Y-108288666D01*
X153268892Y-108330999D01*
X153184225Y-107653666D02*
X153184225Y-107315000D01*
X152887892Y-107526666D02*
X153649892Y-107526666D01*
X153734558Y-107484333D01*
X153776892Y-107399666D01*
X153776892Y-107315000D01*
X153776892Y-105621667D02*
X153776892Y-105664000D01*
X153734558Y-105748667D01*
X153607558Y-105875667D01*
X153353558Y-106087333D01*
X153226558Y-106172000D01*
X153099558Y-106214333D01*
X153014892Y-106214333D01*
X152930225Y-106172000D01*
X152887892Y-106087333D01*
X152887892Y-106045000D01*
X152930225Y-105960333D01*
X153014892Y-105918000D01*
X153057225Y-105918000D01*
X153141892Y-105960333D01*
X153184225Y-106002667D01*
X153353558Y-106256667D01*
X153395892Y-106299000D01*
X153480558Y-106341333D01*
X153607558Y-106341333D01*
X153692225Y-106299000D01*
X153734558Y-106256667D01*
X153776892Y-106172000D01*
X153776892Y-106045000D01*
X153734558Y-105960333D01*
X153692225Y-105918000D01*
X153522892Y-105791000D01*
X153395892Y-105748667D01*
X153311225Y-105748667D01*
X153776892Y-104140000D02*
X153776892Y-104563333D01*
X152887892Y-104563333D01*
X153776892Y-103462666D02*
X153311225Y-103462666D01*
X153226558Y-103505000D01*
X153184225Y-103589666D01*
X153184225Y-103759000D01*
X153226558Y-103843666D01*
X153734558Y-103462666D02*
X153776892Y-103547333D01*
X153776892Y-103759000D01*
X153734558Y-103843666D01*
X153649892Y-103886000D01*
X153565225Y-103886000D01*
X153480558Y-103843666D01*
X153438225Y-103759000D01*
X153438225Y-103547333D01*
X153395892Y-103462666D01*
X153776892Y-102658333D02*
X152887892Y-102658333D01*
X153734558Y-102658333D02*
X153776892Y-102743000D01*
X153776892Y-102912333D01*
X153734558Y-102997000D01*
X153692225Y-103039333D01*
X153607558Y-103081667D01*
X153353558Y-103081667D01*
X153268892Y-103039333D01*
X153226558Y-102997000D01*
X153184225Y-102912333D01*
X153184225Y-102743000D01*
X153226558Y-102658333D01*
X153776892Y-101854000D02*
X152887892Y-101854000D01*
X153734558Y-101854000D02*
X153776892Y-101938667D01*
X153776892Y-102108000D01*
X153734558Y-102192667D01*
X153692225Y-102235000D01*
X153607558Y-102277334D01*
X153353558Y-102277334D01*
X153268892Y-102235000D01*
X153226558Y-102192667D01*
X153184225Y-102108000D01*
X153184225Y-101938667D01*
X153226558Y-101854000D01*
X153734558Y-101092001D02*
X153776892Y-101176667D01*
X153776892Y-101346001D01*
X153734558Y-101430667D01*
X153649892Y-101473001D01*
X153311225Y-101473001D01*
X153226558Y-101430667D01*
X153184225Y-101346001D01*
X153184225Y-101176667D01*
X153226558Y-101092001D01*
X153311225Y-101049667D01*
X153395892Y-101049667D01*
X153480558Y-101473001D01*
X153776892Y-100668667D02*
X153184225Y-100668667D01*
X153353558Y-100668667D02*
X153268892Y-100626334D01*
X153226558Y-100584001D01*
X153184225Y-100499334D01*
X153184225Y-100414667D01*
X154651075Y-106680000D02*
X155243742Y-106468333D01*
X154651075Y-106256667D01*
X155243742Y-105452334D02*
X155243742Y-105960334D01*
X155243742Y-105706334D02*
X154354742Y-105706334D01*
X154481742Y-105791000D01*
X154566408Y-105875667D01*
X154608742Y-105960334D01*
X155159075Y-105071333D02*
X155201408Y-105029000D01*
X155243742Y-105071333D01*
X155201408Y-105113667D01*
X155159075Y-105071333D01*
X155243742Y-105071333D01*
X154354742Y-104478667D02*
X154354742Y-104394000D01*
X154397075Y-104309334D01*
X154439408Y-104267000D01*
X154524075Y-104224667D01*
X154693408Y-104182334D01*
X154905075Y-104182334D01*
X155074408Y-104224667D01*
X155159075Y-104267000D01*
X155201408Y-104309334D01*
X155243742Y-104394000D01*
X155243742Y-104478667D01*
X155201408Y-104563334D01*
X155159075Y-104605667D01*
X155074408Y-104648000D01*
X154905075Y-104690334D01*
X154693408Y-104690334D01*
X154524075Y-104648000D01*
X154439408Y-104605667D01*
X154397075Y-104563334D01*
X154354742Y-104478667D01*
X157288442Y-111548333D02*
X158177442Y-111252000D01*
X157288442Y-110955667D01*
X157711775Y-109982000D02*
X157711775Y-109304667D01*
X157965775Y-109304667D02*
X157965775Y-109982000D01*
X157288442Y-108331000D02*
X158177442Y-108034667D01*
X157288442Y-107738334D01*
X158092775Y-106934000D02*
X158135108Y-106976334D01*
X158177442Y-107103334D01*
X158177442Y-107188000D01*
X158135108Y-107315000D01*
X158050442Y-107399667D01*
X157965775Y-107442000D01*
X157796442Y-107484334D01*
X157669442Y-107484334D01*
X157500108Y-107442000D01*
X157415442Y-107399667D01*
X157330775Y-107315000D01*
X157288442Y-107188000D01*
X157288442Y-107103334D01*
X157330775Y-106976334D01*
X157373108Y-106934000D01*
X158092775Y-106045000D02*
X158135108Y-106087334D01*
X158177442Y-106214334D01*
X158177442Y-106299000D01*
X158135108Y-106426000D01*
X158050442Y-106510667D01*
X157965775Y-106553000D01*
X157796442Y-106595334D01*
X157669442Y-106595334D01*
X157500108Y-106553000D01*
X157415442Y-106510667D01*
X157330775Y-106426000D01*
X157288442Y-106299000D01*
X157288442Y-106214334D01*
X157330775Y-106087334D01*
X157373108Y-106045000D01*
X157288442Y-105537000D02*
X157500108Y-105537000D01*
X157415442Y-105748667D02*
X157500108Y-105537000D01*
X157415442Y-105325334D01*
X157669442Y-105664000D02*
X157500108Y-105537000D01*
X157669442Y-105410000D01*
X158177442Y-104986667D02*
X157288442Y-104986667D01*
X157288442Y-104648001D01*
X157330775Y-104563334D01*
X157373108Y-104521001D01*
X157457775Y-104478667D01*
X157584775Y-104478667D01*
X157669442Y-104521001D01*
X157711775Y-104563334D01*
X157754108Y-104648001D01*
X157754108Y-104986667D01*
X157246108Y-103462667D02*
X158389108Y-104224667D01*
X158516108Y-102912334D02*
X158473775Y-102954668D01*
X158346775Y-103039334D01*
X158262108Y-103081668D01*
X158135108Y-103124001D01*
X157923442Y-103166334D01*
X157754108Y-103166334D01*
X157542442Y-103124001D01*
X157415442Y-103081668D01*
X157330775Y-103039334D01*
X157203775Y-102954668D01*
X157161442Y-102912334D01*
X158177442Y-102573667D02*
X157288442Y-102573667D01*
X157288442Y-102235001D01*
X157330775Y-102150334D01*
X157373108Y-102108001D01*
X157457775Y-102065667D01*
X157584775Y-102065667D01*
X157669442Y-102108001D01*
X157711775Y-102150334D01*
X157754108Y-102235001D01*
X157754108Y-102573667D01*
X157838775Y-101684667D02*
X157838775Y-101007334D01*
X158177442Y-101346001D02*
X157500108Y-101346001D01*
X158177442Y-100584000D02*
X157288442Y-100584000D01*
X157923442Y-100287667D01*
X157288442Y-99991334D01*
X158177442Y-99991334D01*
X158516108Y-99652667D02*
X158473775Y-99610334D01*
X158346775Y-99525667D01*
X158262108Y-99483334D01*
X158135108Y-99441000D01*
X157923442Y-99398667D01*
X157754108Y-99398667D01*
X157542442Y-99441000D01*
X157415442Y-99483334D01*
X157330775Y-99525667D01*
X157203775Y-99610334D01*
X157161442Y-99652667D01*
D13*
X164258572Y-114978571D02*
X163401429Y-114978571D01*
X163830001Y-114978571D02*
X163830001Y-113478571D01*
X163687144Y-113692857D01*
X163544286Y-113835714D01*
X163401429Y-113907143D01*
X161575715Y-113978571D02*
X161575715Y-114978571D01*
X161218572Y-113407143D02*
X160861429Y-114478571D01*
X161790001Y-114478571D01*
X158321429Y-113621429D02*
X158392858Y-113550000D01*
X158535715Y-113478571D01*
X158892858Y-113478571D01*
X159035715Y-113550000D01*
X159107144Y-113621429D01*
X159178572Y-113764286D01*
X159178572Y-113907143D01*
X159107144Y-114121429D01*
X158250001Y-114978571D01*
X159178572Y-114978571D01*
X156638572Y-114978571D02*
X155781429Y-114978571D01*
X156210001Y-114978571D02*
X156210001Y-113478571D01*
X156067144Y-113692857D01*
X155924286Y-113835714D01*
X155781429Y-113907143D01*
X164258572Y-97198571D02*
X163401429Y-97198571D01*
X163830001Y-97198571D02*
X163830001Y-95698571D01*
X163687144Y-95912857D01*
X163544286Y-96055714D01*
X163401429Y-96127143D01*
X161575715Y-96198571D02*
X161575715Y-97198571D01*
X161218572Y-95627143D02*
X160861429Y-96698571D01*
X161790001Y-96698571D01*
X158321429Y-95841429D02*
X158392858Y-95770000D01*
X158535715Y-95698571D01*
X158892858Y-95698571D01*
X159035715Y-95770000D01*
X159107144Y-95841429D01*
X159178572Y-95984286D01*
X159178572Y-96127143D01*
X159107144Y-96341429D01*
X158250001Y-97198571D01*
X159178572Y-97198571D01*
X156638572Y-97198571D02*
X155781429Y-97198571D01*
X156210001Y-97198571D02*
X156210001Y-95698571D01*
X156067144Y-95912857D01*
X155924286Y-96055714D01*
X155781429Y-96127143D01*
X153098572Y-114407143D02*
X154241429Y-114407143D01*
X153098572Y-96627143D02*
X154241429Y-96627143D01*
X153670000Y-97198571D02*
X153670000Y-96055714D01*
D14*
X132300000Y-110245000D02*
X132300000Y-113845000D01*
X134400000Y-110245000D02*
X134400000Y-113845000D01*
X133650000Y-112295000D02*
X133050000Y-112295000D01*
X133050000Y-112295000D02*
X133350000Y-111995000D01*
X133350000Y-111995000D02*
X133550000Y-112195000D01*
X133550000Y-112195000D02*
X133300000Y-112195000D01*
X133300000Y-112195000D02*
X133350000Y-112145000D01*
X133850000Y-111895000D02*
X132850000Y-111895000D01*
X133350000Y-112395000D02*
X133350000Y-112895000D01*
X133350000Y-111895000D02*
X133850000Y-112395000D01*
X133850000Y-112395000D02*
X132850000Y-112395000D01*
X132850000Y-112395000D02*
X133350000Y-111895000D01*
X134840000Y-110245000D02*
X134840000Y-113845000D01*
X136940000Y-110245000D02*
X136940000Y-113845000D01*
X136190000Y-112295000D02*
X135590000Y-112295000D01*
X135590000Y-112295000D02*
X135890000Y-111995000D01*
X135890000Y-111995000D02*
X136090000Y-112195000D01*
X136090000Y-112195000D02*
X135840000Y-112195000D01*
X135840000Y-112195000D02*
X135890000Y-112145000D01*
X136390000Y-111895000D02*
X135390000Y-111895000D01*
X135890000Y-112395000D02*
X135890000Y-112895000D01*
X135890000Y-111895000D02*
X136390000Y-112395000D01*
X136390000Y-112395000D02*
X135390000Y-112395000D01*
X135390000Y-112395000D02*
X135890000Y-111895000D01*
X137380000Y-110245000D02*
X137380000Y-113845000D01*
X139480000Y-110245000D02*
X139480000Y-113845000D01*
X138730000Y-112295000D02*
X138130000Y-112295000D01*
X138130000Y-112295000D02*
X138430000Y-111995000D01*
X138430000Y-111995000D02*
X138630000Y-112195000D01*
X138630000Y-112195000D02*
X138380000Y-112195000D01*
X138380000Y-112195000D02*
X138430000Y-112145000D01*
X138930000Y-111895000D02*
X137930000Y-111895000D01*
X138430000Y-112395000D02*
X138430000Y-112895000D01*
X138430000Y-111895000D02*
X138930000Y-112395000D01*
X138930000Y-112395000D02*
X137930000Y-112395000D01*
X137930000Y-112395000D02*
X138430000Y-111895000D01*
X139920000Y-110245000D02*
X139920000Y-113845000D01*
X142020000Y-110245000D02*
X142020000Y-113845000D01*
X141270000Y-112295000D02*
X140670000Y-112295000D01*
X140670000Y-112295000D02*
X140970000Y-111995000D01*
X140970000Y-111995000D02*
X141170000Y-112195000D01*
X141170000Y-112195000D02*
X140920000Y-112195000D01*
X140920000Y-112195000D02*
X140970000Y-112145000D01*
X141470000Y-111895000D02*
X140470000Y-111895000D01*
X140970000Y-112395000D02*
X140970000Y-112895000D01*
X140970000Y-111895000D02*
X141470000Y-112395000D01*
X141470000Y-112395000D02*
X140470000Y-112395000D01*
X140470000Y-112395000D02*
X140970000Y-111895000D01*
X142020000Y-100575000D02*
X142020000Y-96975000D01*
X139920000Y-100575000D02*
X139920000Y-96975000D01*
X140670000Y-98525000D02*
X141270000Y-98525000D01*
X141270000Y-98525000D02*
X140970000Y-98825000D01*
X140970000Y-98825000D02*
X140770000Y-98625000D01*
X140770000Y-98625000D02*
X141020000Y-98625000D01*
X141020000Y-98625000D02*
X140970000Y-98675000D01*
X140470000Y-98925000D02*
X141470000Y-98925000D01*
X140970000Y-98425000D02*
X140970000Y-97925000D01*
X140970000Y-98925000D02*
X140470000Y-98425000D01*
X140470000Y-98425000D02*
X141470000Y-98425000D01*
X141470000Y-98425000D02*
X140970000Y-98925000D01*
X139480000Y-100575000D02*
X139480000Y-96975000D01*
X137380000Y-100575000D02*
X137380000Y-96975000D01*
X138130000Y-98525000D02*
X138730000Y-98525000D01*
X138730000Y-98525000D02*
X138430000Y-98825000D01*
X138430000Y-98825000D02*
X138230000Y-98625000D01*
X138230000Y-98625000D02*
X138480000Y-98625000D01*
X138480000Y-98625000D02*
X138430000Y-98675000D01*
X137930000Y-98925000D02*
X138930000Y-98925000D01*
X138430000Y-98425000D02*
X138430000Y-97925000D01*
X138430000Y-98925000D02*
X137930000Y-98425000D01*
X137930000Y-98425000D02*
X138930000Y-98425000D01*
X138930000Y-98425000D02*
X138430000Y-98925000D01*
X136940000Y-100575000D02*
X136940000Y-96975000D01*
X134840000Y-100575000D02*
X134840000Y-96975000D01*
X135590000Y-98525000D02*
X136190000Y-98525000D01*
X136190000Y-98525000D02*
X135890000Y-98825000D01*
X135890000Y-98825000D02*
X135690000Y-98625000D01*
X135690000Y-98625000D02*
X135940000Y-98625000D01*
X135940000Y-98625000D02*
X135890000Y-98675000D01*
X135390000Y-98925000D02*
X136390000Y-98925000D01*
X135890000Y-98425000D02*
X135890000Y-97925000D01*
X135890000Y-98925000D02*
X135390000Y-98425000D01*
X135390000Y-98425000D02*
X136390000Y-98425000D01*
X136390000Y-98425000D02*
X135890000Y-98925000D01*
X134400000Y-100575000D02*
X134400000Y-96975000D01*
X132300000Y-100575000D02*
X132300000Y-96975000D01*
X133050000Y-98525000D02*
X133650000Y-98525000D01*
X133650000Y-98525000D02*
X133350000Y-98825000D01*
X133350000Y-98825000D02*
X133150000Y-98625000D01*
X133150000Y-98625000D02*
X133400000Y-98625000D01*
X133400000Y-98625000D02*
X133350000Y-98675000D01*
X132850000Y-98925000D02*
X133850000Y-98925000D01*
X133350000Y-98425000D02*
X133350000Y-97925000D01*
X133350000Y-98925000D02*
X132850000Y-98425000D01*
X132850000Y-98425000D02*
X133850000Y-98425000D01*
X133850000Y-98425000D02*
X133350000Y-98925000D01*
X142460000Y-110245000D02*
X142460000Y-113845000D01*
X144560000Y-110245000D02*
X144560000Y-113845000D01*
X143810000Y-112295000D02*
X143210000Y-112295000D01*
X143210000Y-112295000D02*
X143510000Y-111995000D01*
X143510000Y-111995000D02*
X143710000Y-112195000D01*
X143710000Y-112195000D02*
X143460000Y-112195000D01*
X143460000Y-112195000D02*
X143510000Y-112145000D01*
X144010000Y-111895000D02*
X143010000Y-111895000D01*
X143510000Y-112395000D02*
X143510000Y-112895000D01*
X143510000Y-111895000D02*
X144010000Y-112395000D01*
X144010000Y-112395000D02*
X143010000Y-112395000D01*
X143010000Y-112395000D02*
X143510000Y-111895000D01*
X145000000Y-110245000D02*
X145000000Y-113845000D01*
X147100000Y-110245000D02*
X147100000Y-113845000D01*
X146350000Y-112295000D02*
X145750000Y-112295000D01*
X145750000Y-112295000D02*
X146050000Y-111995000D01*
X146050000Y-111995000D02*
X146250000Y-112195000D01*
X146250000Y-112195000D02*
X146000000Y-112195000D01*
X146000000Y-112195000D02*
X146050000Y-112145000D01*
X146550000Y-111895000D02*
X145550000Y-111895000D01*
X146050000Y-112395000D02*
X146050000Y-112895000D01*
X146050000Y-111895000D02*
X146550000Y-112395000D01*
X146550000Y-112395000D02*
X145550000Y-112395000D01*
X145550000Y-112395000D02*
X146050000Y-111895000D01*
X147540000Y-110245000D02*
X147540000Y-113845000D01*
X149640000Y-110245000D02*
X149640000Y-113845000D01*
X148890000Y-112295000D02*
X148290000Y-112295000D01*
X148290000Y-112295000D02*
X148590000Y-111995000D01*
X148590000Y-111995000D02*
X148790000Y-112195000D01*
X148790000Y-112195000D02*
X148540000Y-112195000D01*
X148540000Y-112195000D02*
X148590000Y-112145000D01*
X149090000Y-111895000D02*
X148090000Y-111895000D01*
X148590000Y-112395000D02*
X148590000Y-112895000D01*
X148590000Y-111895000D02*
X149090000Y-112395000D01*
X149090000Y-112395000D02*
X148090000Y-112395000D01*
X148090000Y-112395000D02*
X148590000Y-111895000D01*
X150080000Y-110245000D02*
X150080000Y-113845000D01*
X152180000Y-110245000D02*
X152180000Y-113845000D01*
X151430000Y-112295000D02*
X150830000Y-112295000D01*
X150830000Y-112295000D02*
X151130000Y-111995000D01*
X151130000Y-111995000D02*
X151330000Y-112195000D01*
X151330000Y-112195000D02*
X151080000Y-112195000D01*
X151080000Y-112195000D02*
X151130000Y-112145000D01*
X151630000Y-111895000D02*
X150630000Y-111895000D01*
X151130000Y-112395000D02*
X151130000Y-112895000D01*
X151130000Y-111895000D02*
X151630000Y-112395000D01*
X151630000Y-112395000D02*
X150630000Y-112395000D01*
X150630000Y-112395000D02*
X151130000Y-111895000D01*
X152180000Y-100575000D02*
X152180000Y-96975000D01*
X150080000Y-100575000D02*
X150080000Y-96975000D01*
X150830000Y-98525000D02*
X151430000Y-98525000D01*
X151430000Y-98525000D02*
X151130000Y-98825000D01*
X151130000Y-98825000D02*
X150930000Y-98625000D01*
X150930000Y-98625000D02*
X151180000Y-98625000D01*
X151180000Y-98625000D02*
X151130000Y-98675000D01*
X150630000Y-98925000D02*
X151630000Y-98925000D01*
X151130000Y-98425000D02*
X151130000Y-97925000D01*
X151130000Y-98925000D02*
X150630000Y-98425000D01*
X150630000Y-98425000D02*
X151630000Y-98425000D01*
X151630000Y-98425000D02*
X151130000Y-98925000D01*
X149640000Y-100575000D02*
X149640000Y-96975000D01*
X147540000Y-100575000D02*
X147540000Y-96975000D01*
X148290000Y-98525000D02*
X148890000Y-98525000D01*
X148890000Y-98525000D02*
X148590000Y-98825000D01*
X148590000Y-98825000D02*
X148390000Y-98625000D01*
X148390000Y-98625000D02*
X148640000Y-98625000D01*
X148640000Y-98625000D02*
X148590000Y-98675000D01*
X148090000Y-98925000D02*
X149090000Y-98925000D01*
X148590000Y-98425000D02*
X148590000Y-97925000D01*
X148590000Y-98925000D02*
X148090000Y-98425000D01*
X148090000Y-98425000D02*
X149090000Y-98425000D01*
X149090000Y-98425000D02*
X148590000Y-98925000D01*
X147100000Y-100575000D02*
X147100000Y-96975000D01*
X145000000Y-100575000D02*
X145000000Y-96975000D01*
X145750000Y-98525000D02*
X146350000Y-98525000D01*
X146350000Y-98525000D02*
X146050000Y-98825000D01*
X146050000Y-98825000D02*
X145850000Y-98625000D01*
X145850000Y-98625000D02*
X146100000Y-98625000D01*
X146100000Y-98625000D02*
X146050000Y-98675000D01*
X145550000Y-98925000D02*
X146550000Y-98925000D01*
X146050000Y-98425000D02*
X146050000Y-97925000D01*
X146050000Y-98925000D02*
X145550000Y-98425000D01*
X145550000Y-98425000D02*
X146550000Y-98425000D01*
X146550000Y-98425000D02*
X146050000Y-98925000D01*
X144560000Y-100575000D02*
X144560000Y-96975000D01*
X142460000Y-100575000D02*
X142460000Y-96975000D01*
X143210000Y-98525000D02*
X143810000Y-98525000D01*
X143810000Y-98525000D02*
X143510000Y-98825000D01*
X143510000Y-98825000D02*
X143310000Y-98625000D01*
X143310000Y-98625000D02*
X143560000Y-98625000D01*
X143560000Y-98625000D02*
X143510000Y-98675000D01*
X143010000Y-98925000D02*
X144010000Y-98925000D01*
X143510000Y-98425000D02*
X143510000Y-97925000D01*
X143510000Y-98925000D02*
X143010000Y-98425000D01*
X143010000Y-98425000D02*
X144010000Y-98425000D01*
X144010000Y-98425000D02*
X143510000Y-98925000D01*
D15*
X135255000Y-103822500D02*
X135255000Y-106997500D01*
X141605000Y-103822500D02*
X141605000Y-106997500D01*
X135255000Y-103822500D02*
X141605000Y-103822500D01*
X135255000Y-106997500D02*
X141605000Y-106997500D01*
X142875000Y-103822500D02*
X142875000Y-106997500D01*
X149225000Y-103822500D02*
X149225000Y-106997500D01*
X142875000Y-103822500D02*
X149225000Y-103822500D01*
X142875000Y-106997500D02*
X149225000Y-106997500D01*
X163512500Y-106045000D02*
X160337500Y-106045000D01*
X163512500Y-112395000D02*
X160337500Y-112395000D01*
X163512500Y-106045000D02*
X163512500Y-112395000D01*
X160337500Y-106045000D02*
X160337500Y-112395000D01*
X163512500Y-98425000D02*
X160337500Y-98425000D01*
X163512500Y-104775000D02*
X160337500Y-104775000D01*
X163512500Y-98425000D02*
X163512500Y-104775000D01*
X160337500Y-98425000D02*
X160337500Y-104775000D01*
X147955000Y-92710000D02*
X149225000Y-92710000D01*
X149225000Y-92710000D02*
X149860000Y-93345000D01*
X149860000Y-94615000D02*
X149225000Y-95250000D01*
X144780000Y-93345000D02*
X145415000Y-92710000D01*
X145415000Y-92710000D02*
X146685000Y-92710000D01*
X146685000Y-92710000D02*
X147320000Y-93345000D01*
X147320000Y-94615000D02*
X146685000Y-95250000D01*
X146685000Y-95250000D02*
X145415000Y-95250000D01*
X145415000Y-95250000D02*
X144780000Y-94615000D01*
X147955000Y-92710000D02*
X147320000Y-93345000D01*
X147320000Y-94615000D02*
X147955000Y-95250000D01*
X149225000Y-95250000D02*
X147955000Y-95250000D01*
X140335000Y-92710000D02*
X141605000Y-92710000D01*
X141605000Y-92710000D02*
X142240000Y-93345000D01*
X142240000Y-94615000D02*
X141605000Y-95250000D01*
X142240000Y-93345000D02*
X142875000Y-92710000D01*
X142875000Y-92710000D02*
X144145000Y-92710000D01*
X144145000Y-92710000D02*
X144780000Y-93345000D01*
X144780000Y-94615000D02*
X144145000Y-95250000D01*
X144145000Y-95250000D02*
X142875000Y-95250000D01*
X142875000Y-95250000D02*
X142240000Y-94615000D01*
X137160000Y-93345000D02*
X137795000Y-92710000D01*
X137795000Y-92710000D02*
X139065000Y-92710000D01*
X139065000Y-92710000D02*
X139700000Y-93345000D01*
X139700000Y-94615000D02*
X139065000Y-95250000D01*
X139065000Y-95250000D02*
X137795000Y-95250000D01*
X137795000Y-95250000D02*
X137160000Y-94615000D01*
X140335000Y-92710000D02*
X139700000Y-93345000D01*
X139700000Y-94615000D02*
X140335000Y-95250000D01*
X141605000Y-95250000D02*
X140335000Y-95250000D01*
X132715000Y-92710000D02*
X133985000Y-92710000D01*
X133985000Y-92710000D02*
X134620000Y-93345000D01*
X134620000Y-94615000D02*
X133985000Y-95250000D01*
X134620000Y-93345000D02*
X135255000Y-92710000D01*
X135255000Y-92710000D02*
X136525000Y-92710000D01*
X136525000Y-92710000D02*
X137160000Y-93345000D01*
X137160000Y-94615000D02*
X136525000Y-95250000D01*
X136525000Y-95250000D02*
X135255000Y-95250000D01*
X135255000Y-95250000D02*
X134620000Y-94615000D01*
X132080000Y-93345000D02*
X132080000Y-94615000D01*
X132715000Y-92710000D02*
X132080000Y-93345000D01*
X132080000Y-94615000D02*
X132715000Y-95250000D01*
X133985000Y-95250000D02*
X132715000Y-95250000D01*
X162560000Y-93345000D02*
X163195000Y-92710000D01*
X163195000Y-92710000D02*
X164465000Y-92710000D01*
X164465000Y-92710000D02*
X165100000Y-93345000D01*
X165100000Y-94615000D02*
X164465000Y-95250000D01*
X164465000Y-95250000D02*
X163195000Y-95250000D01*
X163195000Y-95250000D02*
X162560000Y-94615000D01*
X165100000Y-94615000D02*
X165100000Y-93345000D01*
X158115000Y-92710000D02*
X159385000Y-92710000D01*
X159385000Y-92710000D02*
X160020000Y-93345000D01*
X160020000Y-94615000D02*
X159385000Y-95250000D01*
X160020000Y-93345000D02*
X160655000Y-92710000D01*
X160655000Y-92710000D02*
X161925000Y-92710000D01*
X161925000Y-92710000D02*
X162560000Y-93345000D01*
X162560000Y-94615000D02*
X161925000Y-95250000D01*
X161925000Y-95250000D02*
X160655000Y-95250000D01*
X160655000Y-95250000D02*
X160020000Y-94615000D01*
X154940000Y-93345000D02*
X155575000Y-92710000D01*
X155575000Y-92710000D02*
X156845000Y-92710000D01*
X156845000Y-92710000D02*
X157480000Y-93345000D01*
X157480000Y-94615000D02*
X156845000Y-95250000D01*
X156845000Y-95250000D02*
X155575000Y-95250000D01*
X155575000Y-95250000D02*
X154940000Y-94615000D01*
X158115000Y-92710000D02*
X157480000Y-93345000D01*
X157480000Y-94615000D02*
X158115000Y-95250000D01*
X159385000Y-95250000D02*
X158115000Y-95250000D01*
X150495000Y-92710000D02*
X151765000Y-92710000D01*
X151765000Y-92710000D02*
X152400000Y-93345000D01*
X152400000Y-94615000D02*
X151765000Y-95250000D01*
X152400000Y-93345000D02*
X153035000Y-92710000D01*
X153035000Y-92710000D02*
X154305000Y-92710000D01*
X154305000Y-92710000D02*
X154940000Y-93345000D01*
X154940000Y-94615000D02*
X154305000Y-95250000D01*
X154305000Y-95250000D02*
X153035000Y-95250000D01*
X153035000Y-95250000D02*
X152400000Y-94615000D01*
X150495000Y-92710000D02*
X149860000Y-93345000D01*
X149860000Y-94615000D02*
X150495000Y-95250000D01*
X151765000Y-95250000D02*
X150495000Y-95250000D01*
X149225000Y-118110000D02*
X147955000Y-118110000D01*
X147955000Y-118110000D02*
X147320000Y-117475000D01*
X147320000Y-116205000D02*
X147955000Y-115570000D01*
X152400000Y-117475000D02*
X151765000Y-118110000D01*
X151765000Y-118110000D02*
X150495000Y-118110000D01*
X150495000Y-118110000D02*
X149860000Y-117475000D01*
X149860000Y-116205000D02*
X150495000Y-115570000D01*
X150495000Y-115570000D02*
X151765000Y-115570000D01*
X151765000Y-115570000D02*
X152400000Y-116205000D01*
X149225000Y-118110000D02*
X149860000Y-117475000D01*
X149860000Y-116205000D02*
X149225000Y-115570000D01*
X147955000Y-115570000D02*
X149225000Y-115570000D01*
X156845000Y-118110000D02*
X155575000Y-118110000D01*
X155575000Y-118110000D02*
X154940000Y-117475000D01*
X154940000Y-116205000D02*
X155575000Y-115570000D01*
X154940000Y-117475000D02*
X154305000Y-118110000D01*
X154305000Y-118110000D02*
X153035000Y-118110000D01*
X153035000Y-118110000D02*
X152400000Y-117475000D01*
X152400000Y-116205000D02*
X153035000Y-115570000D01*
X153035000Y-115570000D02*
X154305000Y-115570000D01*
X154305000Y-115570000D02*
X154940000Y-116205000D01*
X160020000Y-117475000D02*
X159385000Y-118110000D01*
X159385000Y-118110000D02*
X158115000Y-118110000D01*
X158115000Y-118110000D02*
X157480000Y-117475000D01*
X157480000Y-116205000D02*
X158115000Y-115570000D01*
X158115000Y-115570000D02*
X159385000Y-115570000D01*
X159385000Y-115570000D02*
X160020000Y-116205000D01*
X156845000Y-118110000D02*
X157480000Y-117475000D01*
X157480000Y-116205000D02*
X156845000Y-115570000D01*
X155575000Y-115570000D02*
X156845000Y-115570000D01*
X164465000Y-118110000D02*
X163195000Y-118110000D01*
X163195000Y-118110000D02*
X162560000Y-117475000D01*
X162560000Y-116205000D02*
X163195000Y-115570000D01*
X162560000Y-117475000D02*
X161925000Y-118110000D01*
X161925000Y-118110000D02*
X160655000Y-118110000D01*
X160655000Y-118110000D02*
X160020000Y-117475000D01*
X160020000Y-116205000D02*
X160655000Y-115570000D01*
X160655000Y-115570000D02*
X161925000Y-115570000D01*
X161925000Y-115570000D02*
X162560000Y-116205000D01*
X165100000Y-117475000D02*
X165100000Y-116205000D01*
X164465000Y-118110000D02*
X165100000Y-117475000D01*
X165100000Y-116205000D02*
X164465000Y-115570000D01*
X163195000Y-115570000D02*
X164465000Y-115570000D01*
X134620000Y-117475000D02*
X133985000Y-118110000D01*
X133985000Y-118110000D02*
X132715000Y-118110000D01*
X132715000Y-118110000D02*
X132080000Y-117475000D01*
X132080000Y-116205000D02*
X132715000Y-115570000D01*
X132715000Y-115570000D02*
X133985000Y-115570000D01*
X133985000Y-115570000D02*
X134620000Y-116205000D01*
X132080000Y-116205000D02*
X132080000Y-117475000D01*
X139065000Y-118110000D02*
X137795000Y-118110000D01*
X137795000Y-118110000D02*
X137160000Y-117475000D01*
X137160000Y-116205000D02*
X137795000Y-115570000D01*
X137160000Y-117475000D02*
X136525000Y-118110000D01*
X136525000Y-118110000D02*
X135255000Y-118110000D01*
X135255000Y-118110000D02*
X134620000Y-117475000D01*
X134620000Y-116205000D02*
X135255000Y-115570000D01*
X135255000Y-115570000D02*
X136525000Y-115570000D01*
X136525000Y-115570000D02*
X137160000Y-116205000D01*
X142240000Y-117475000D02*
X141605000Y-118110000D01*
X141605000Y-118110000D02*
X140335000Y-118110000D01*
X140335000Y-118110000D02*
X139700000Y-117475000D01*
X139700000Y-116205000D02*
X140335000Y-115570000D01*
X140335000Y-115570000D02*
X141605000Y-115570000D01*
X141605000Y-115570000D02*
X142240000Y-116205000D01*
X139065000Y-118110000D02*
X139700000Y-117475000D01*
X139700000Y-116205000D02*
X139065000Y-115570000D01*
X137795000Y-115570000D02*
X139065000Y-115570000D01*
X146685000Y-118110000D02*
X145415000Y-118110000D01*
X145415000Y-118110000D02*
X144780000Y-117475000D01*
X144780000Y-116205000D02*
X145415000Y-115570000D01*
X144780000Y-117475000D02*
X144145000Y-118110000D01*
X144145000Y-118110000D02*
X142875000Y-118110000D01*
X142875000Y-118110000D02*
X142240000Y-117475000D01*
X142240000Y-116205000D02*
X142875000Y-115570000D01*
X142875000Y-115570000D02*
X144145000Y-115570000D01*
X144145000Y-115570000D02*
X144780000Y-116205000D01*
X146685000Y-118110000D02*
X147320000Y-117475000D01*
X147320000Y-116205000D02*
X146685000Y-115570000D01*
X145415000Y-115570000D02*
X146685000Y-115570000D01*
M02*
