G04 #@! TF.FileFunction,Legend,Bot*
%FSLAX46Y46*%
G04 Gerber Fmt 4.6, Leading zero omitted, Abs format (unit mm)*
G04 Created by KiCad (PCBNEW 4.0.0-stable) date 2016 May 25, Wednesday 08:29:24*
%MOMM*%
G01*
G04 APERTURE LIST*
%ADD10C,0.100000*%
%ADD11C,0.203200*%
G04 APERTURE END LIST*
D10*
D11*
X135155940Y-102849680D02*
X141704060Y-102849680D01*
X141704060Y-102849680D02*
X141704060Y-107970320D01*
X141704060Y-107970320D02*
X135155940Y-107970320D01*
X135155940Y-107970320D02*
X135155940Y-102849680D01*
D10*
X136112710Y-105884980D02*
G75*
G03X136112710Y-105884980I-222710J0D01*
G01*
D11*
X142775940Y-102849680D02*
X149324060Y-102849680D01*
X149324060Y-102849680D02*
X149324060Y-107970320D01*
X149324060Y-107970320D02*
X142775940Y-107970320D01*
X142775940Y-107970320D02*
X142775940Y-102849680D01*
D10*
X143732710Y-105884980D02*
G75*
G03X143732710Y-105884980I-222710J0D01*
G01*
D11*
X164485320Y-105945940D02*
X164485320Y-112494060D01*
X164485320Y-112494060D02*
X159364680Y-112494060D01*
X159364680Y-112494060D02*
X159364680Y-105945940D01*
X159364680Y-105945940D02*
X164485320Y-105945940D01*
D10*
X161672730Y-106680000D02*
G75*
G03X161672730Y-106680000I-222710J0D01*
G01*
D11*
X164485320Y-98325940D02*
X164485320Y-104874060D01*
X164485320Y-104874060D02*
X159364680Y-104874060D01*
X159364680Y-104874060D02*
X159364680Y-98325940D01*
X159364680Y-98325940D02*
X164485320Y-98325940D01*
D10*
X161672730Y-99060000D02*
G75*
G03X161672730Y-99060000I-222710J0D01*
G01*
M02*
