M48
INCH,TZ
T1C0.016
T2C0.040
%
G90
G05
T1
X060500Y-044000
X062250Y-044000
X062500Y-038500
X062500Y-039500
X063000Y-038500
X063750Y-040000
X063750Y-042000
X063750Y-042500
X064500Y-038250
T2
X052500Y-037000
X052500Y-046000
X053500Y-037000
X053500Y-046000
X054500Y-037000
X054500Y-046000
X055500Y-037000
X055500Y-046000
X056500Y-037000
X056500Y-046000
X057500Y-037000
X057500Y-046000
X058500Y-037000
X058500Y-046000
X059500Y-037000
X059500Y-046000
X060500Y-037000
X060500Y-046000
X061500Y-037000
X061500Y-046000
X062500Y-037000
X062500Y-046000
X063500Y-037000
X063500Y-046000
X064500Y-037000
X064500Y-046000
T0
M30
